<svg width="257" height="181" viewBox="0 0 257 181" fill="none" xmlns="http://www.w3.org/2000/svg">
<g filter="url(#filter0_d_7_40)">
<path d="M165.372 1.50171L165.336 1.5H165.3H91.5C90.5269 1.5 88.8999 1.72674 87.2586 2.88801C85.6026 4.05975 84.0807 6.07792 83.1559 9.39426C81.49 15.2782 82.0826 24.6952 87.7425 33.2H45.4C33.5716 33.2 24 42.7716 24 54.6C24 58.3511 25.0109 61.8889 26.7524 65.0005C14.9921 65.0797 5.5 74.6208 5.5 86.4C5.5 97.2312 13.6591 106.213 24.1315 107.612C22.3369 110.717 21.3 114.322 21.3 118.2C21.3 130.028 30.8716 139.6 42.7 139.6H54.6239C52.8955 142.662 51.9 146.2 51.9 150C51.9 161.828 61.4716 171.4 73.3 171.4H167.3C213.428 171.4 251 133.828 251 87.7C251 65.0019 242.242 43.9205 226.261 27.9393C210.387 12.0658 188.73 2.61886 165.372 1.50171ZM131.91 126.5H131.931L132.242 125.412C133.066 122.529 131.422 119.489 128.512 118.658C125.629 117.834 122.589 119.478 121.758 122.388L121.7 122.59V122.664C121.7 122.665 121.699 122.667 121.699 122.669C121.676 122.767 121.642 122.907 121.595 123.098L121.579 123.161C121.489 123.531 121.364 124.036 121.226 124.639C121.002 125.611 120.739 126.844 120.513 128.2H42.8C37.1202 128.2 32.4 123.563 32.4 117.8C32.4 112.028 37.0284 107.4 42.8 107.4H113.709C113.926 108.746 114.171 109.973 114.385 110.947C114.526 111.587 114.655 112.124 114.757 112.519C114.808 112.716 114.854 112.883 114.892 113.015L114.896 113.027C114.909 113.075 114.938 113.172 114.977 113.278C115.689 115.712 117.882 117.2 120.2 117.2L120.239 117.2C120.626 117.2 121.178 117.201 121.838 116.905C124.604 116.042 126.396 113.079 125.429 110.144C125.047 108.895 124.1 104.877 124.1 101.9C124.1 100.092 124.404 98.0261 124.733 96.3817C124.865 95.7254 124.997 95.1494 125.11 94.7H125.131L125.442 93.6121C126.266 90.7286 124.622 87.689 121.712 86.8577C118.829 86.0339 115.789 87.6784 114.958 90.5879L114.9 90.7899V90.8636C114.9 90.8654 114.899 90.8673 114.899 90.8691C114.876 90.9674 114.842 91.1075 114.795 91.2982L114.78 91.3604C114.689 91.7299 114.564 92.2359 114.426 92.8388C114.202 93.8108 113.939 95.0439 113.713 96.4H27C21.3202 96.4 16.6 91.7634 16.6 86C16.6 80.2284 21.2284 75.6 27 75.6H117.509C117.726 76.9457 117.971 78.1727 118.185 79.1473C118.326 79.7874 118.455 80.324 118.557 80.7189C118.608 80.9155 118.654 81.0834 118.692 81.2145C118.704 81.2554 118.734 81.3616 118.777 81.4782C119.489 83.9117 121.682 85.4 124 85.4L124.039 85.4C124.426 85.4004 124.978 85.4009 125.638 85.1047C128.404 84.2423 130.196 81.279 129.229 78.3442C128.847 77.0952 127.9 73.0767 127.9 70.1C127.9 68.2916 128.204 66.2261 128.533 64.5817C128.665 63.9254 128.797 63.3494 128.91 62.9H128.931L129.242 61.8121C130.066 58.9286 128.422 55.889 125.512 55.0577C122.653 54.2407 119.64 55.8512 118.779 58.7155C118.735 58.8346 118.704 58.9439 118.692 58.9855C118.654 59.1166 118.608 59.2845 118.557 59.4811C118.455 59.876 118.326 60.4126 118.185 61.0527C117.971 62.0273 117.726 63.2543 117.509 64.6H45.4C39.7202 64.6 35 59.9634 35 54.2C35 48.5202 39.6366 43.8 45.4 43.8H99.9341C104.313 46.024 109.596 46.8507 115.024 47.0366C120.601 47.2276 126.49 46.7436 131.923 46.2949L131.936 46.2938L131.949 46.2926C132.445 46.243 132.967 46.1933 133.492 46.1432C133.991 46.0958 134.493 46.0479 134.975 46H135.1H135.162L135.223 45.9949C139.387 45.652 141.722 45.8836 142.972 46.1637C143.591 46.3025 143.923 46.4486 144.07 46.5271C144.105 46.5456 144.129 46.5604 144.145 46.5706C144.942 47.4717 145.67 48.8265 146.369 50.5805C147.078 52.3584 147.711 54.422 148.361 56.625L148.364 56.6321L148.366 56.6391L148.431 56.8519C149.9 61.6516 151.669 67.4325 155.22 71.926C160.12 78.1809 167.178 82.834 174.514 86.1073C181.855 89.3828 189.572 91.3202 195.91 92.0879C198.968 92.4981 201.681 90.276 202.086 87.3027C202.504 84.239 200.28 81.5198 197.303 81.1137L197.289 81.112C191.532 80.3801 184.951 78.6194 178.904 75.8949C172.847 73.1662 167.429 69.5185 163.879 65.0731C161.701 62.2541 160.378 58.0028 158.962 53.4488L158.937 53.369C158.936 53.3666 158.935 53.3643 158.935 53.3619C157.46 48.4466 155.781 42.8897 152.31 39.0914C150.117 36.663 146.878 35.5854 143.701 35.1278C140.519 34.6694 137.16 34.8004 134.445 35H134.3H134.225L134.151 35.0074C133.152 35.1073 132.16 35.2065 131.07 35.3056C131.068 35.3058 131.066 35.306 131.064 35.3062L131.047 35.3076C126.187 35.7083 120.856 36.148 115.996 36.0379C111.072 35.9262 106.925 35.2488 104.29 33.6247C96.0915 28.5355 94.046 21.6157 93.485 17.9881C93.1238 15.2264 93.3945 13.1848 93.7339 12H165.061C207.218 14.1807 240.098 47.0807 240.1 86.8964C240.002 127.379 207.463 160 167.4 160H73.4C67.7202 160 63 155.363 63 149.6C63 143.828 67.6284 139.2 73.4 139.2H120.509C120.726 140.546 120.971 141.773 121.185 142.747C121.326 143.387 121.455 143.924 121.557 144.319C121.608 144.516 121.654 144.683 121.692 144.815L121.696 144.827C121.709 144.875 121.738 144.972 121.777 145.078C122.489 147.512 124.682 149 127 149L127.039 149C127.426 149 127.978 149.001 128.638 148.705C131.404 147.842 133.196 144.879 132.229 141.944C131.847 140.695 130.9 136.677 130.9 133.7C130.9 131.892 131.204 129.826 131.533 128.182C131.665 127.525 131.797 126.949 131.91 126.5ZM114.917 90.7849C114.917 90.7866 114.917 90.7888 114.916 90.7917C114.92 90.7662 114.922 90.7608 114.917 90.7849ZM121.717 122.585C121.717 122.587 121.717 122.589 121.716 122.592C121.72 122.566 121.722 122.561 121.717 122.585Z" fill="#FF0000" stroke="#FFF500" stroke-width="3"/>
</g>
<defs>
<filter id="filter0_d_7_40" x="0" y="0" width="256.5" height="180.9" filterUnits="userSpaceOnUse" color-interpolation-filters="sRGB">
<feFlood flood-opacity="0" result="BackgroundImageFix"/>
<feColorMatrix in="SourceAlpha" type="matrix" values="0 0 0 0 0 0 0 0 0 0 0 0 0 0 0 0 0 0 127 0" result="hardAlpha"/>
<feOffset dy="4"/>
<feGaussianBlur stdDeviation="2"/>
<feComposite in2="hardAlpha" operator="out"/>
<feColorMatrix type="matrix" values="0 0 0 0 0 0 0 0 0 0 0 0 0 0 0 0 0 0 0.25 0"/>
<feBlend mode="normal" in2="BackgroundImageFix" result="effect1_dropShadow_7_40"/>
<feBlend mode="normal" in="SourceGraphic" in2="effect1_dropShadow_7_40" result="shape"/>
</filter>
</defs>
</svg>
