<svg width="257" height="181" viewBox="0 0 257 181" fill="none" xmlns="http://www.w3.org/2000/svg">
<g filter="url(#filter0_d_7_58)">
<path d="M165.372 1.50171L165.336 1.5H165.3H91.5C90.5269 1.5 88.8999 1.72674 87.2586 2.88801C85.6041 4.05866 84.0836 6.07416 83.1585 9.385C82.1437 12.8082 81.9365 17.4623 83.0668 22.3313L56.6638 15.8448C56.6628 15.8445 56.6617 15.8443 56.6607 15.844C51.0805 14.4498 45.3675 15.3063 40.5178 18.32C35.6729 21.2308 32.2398 25.9633 30.8465 31.4295L30.8464 31.4295L30.8432 31.4427C28.0471 42.842 35.0328 54.4582 46.4427 57.2568L77.1901 64.8H26.9C15.0716 64.8 5.5 74.3716 5.5 86.2C5.5 98.0284 15.0716 107.6 26.9 107.6H93.2239C91.4955 110.662 90.5 114.2 90.5 118C90.5 126.747 95.8206 134.287 103.399 137.591C101.032 141.038 99.6 145.166 99.6 149.7C99.6 161.528 109.172 171.1 121 171.1H144.2H145.7H167.4C213.528 171.1 251.1 133.528 251.1 87.4L251.1 87.3932C250.998 64.9971 242.24 43.9186 226.261 27.9393C210.387 12.0658 188.73 2.61886 165.372 1.50171ZM128.81 63H128.831L129.142 61.9121C129.966 59.0286 128.322 55.989 125.412 55.1577C122.529 54.3339 119.489 55.9784 118.658 58.8879L118.6 59.0899V59.1552C118.581 59.2318 118.554 59.3363 118.517 59.4788L118.509 59.5094C118.428 59.8198 118.316 60.2533 118.191 60.7776C118.022 61.4855 117.83 62.3639 117.659 63.3545L48.9692 46.6462C48.9669 46.6456 48.9646 46.645 48.9622 46.6444C43.4582 45.2425 40.0569 39.6499 41.356 34.1611C42.0637 31.4327 43.7262 29.1762 46.0647 27.7904C48.4277 26.3902 51.23 25.9481 53.9562 26.5601L89.2368 35.2325C91.6015 38.2166 94.6292 40.9873 98.399 43.3683L98.4078 43.3737C102.828 46.1231 108.431 47.1688 114.231 47.4359C120.046 47.7037 126.243 47.1932 131.931 46.6943L131.94 46.6935L131.949 46.6926C132.445 46.643 132.967 46.5933 133.492 46.5432C133.991 46.4958 134.493 46.4479 134.975 46.4H135.1H135.162L135.223 46.3949C139.387 46.052 141.722 46.2836 142.972 46.5637C143.591 46.7025 143.923 46.8486 144.07 46.9271C144.105 46.9456 144.129 46.9604 144.145 46.9706C144.942 47.8717 145.67 49.2265 146.369 50.9805C147.078 52.7584 147.711 54.822 148.361 57.025L148.364 57.0321L148.366 57.0391L148.431 57.2519C149.9 62.0516 151.669 67.8325 155.22 72.326C160.12 78.5809 167.178 83.234 174.514 86.5073C181.855 89.7828 189.572 91.7202 195.91 92.4879C198.968 92.8981 201.681 90.676 202.086 87.7027C202.504 84.639 200.28 81.9197 197.303 81.5137L197.289 81.512C191.532 80.7801 184.951 79.0194 178.904 76.2949C172.847 73.5662 167.429 69.9185 163.879 65.4731C161.701 62.6541 160.378 58.4029 158.962 53.8489L158.937 53.769C158.936 53.7666 158.935 53.7642 158.935 53.7618C157.46 48.8466 155.781 43.2896 152.31 39.4914C150.117 37.063 146.878 35.9854 143.701 35.5278C140.519 35.0694 137.16 35.2004 134.445 35.4H134.3H134.225L134.151 35.4074C133.152 35.5073 132.16 35.6065 131.07 35.7056C131.068 35.7058 131.066 35.706 131.064 35.7062L131.047 35.7076C126.188 36.1083 120.856 36.548 115.996 36.4379C111.072 36.3262 106.925 35.6488 104.29 34.0247C96.0915 28.9355 94.046 22.0157 93.485 18.3881C93.1238 15.6264 93.3945 13.5848 93.7339 12.4H165.061C207.218 14.5807 240.098 47.4807 240.1 87.2963C240.002 127.374 207.468 160 167.4 160H164.376C166.105 156.938 167.1 153.4 167.1 149.6C167.1 143.834 164.782 138.584 161.069 134.769C166.108 130.884 169.4 124.752 169.4 117.9C169.4 106.072 159.828 96.5 148 96.5H118.7H111.9H26.9C21.2202 96.5 16.5 91.8634 16.5 86.1C16.5 80.3284 21.1284 75.7 26.9 75.7H117.409C117.626 77.0457 117.871 78.2727 118.085 79.2473C118.226 79.8874 118.355 80.424 118.457 80.8189C118.508 81.0155 118.554 81.1834 118.592 81.3145L118.596 81.3273C118.609 81.3748 118.638 81.4722 118.677 81.5782C119.389 84.0117 121.582 85.5 123.9 85.5L123.939 85.5C124.326 85.5004 124.878 85.5009 125.538 85.2047C128.304 84.3422 130.096 81.379 129.129 78.4442C128.747 77.1952 127.8 73.1767 127.8 70.2C127.8 68.3916 128.104 66.3261 128.433 64.6817C128.565 64.0254 128.697 63.4494 128.81 63ZM101.5 117.9C101.5 112.22 106.137 107.5 111.9 107.5H118.7H148C153.68 107.5 158.4 112.137 158.4 117.9C158.4 123.672 153.772 128.3 148 128.3H145.7H121H111.9C106.128 128.3 101.5 123.672 101.5 117.9ZM144.2 160H121C115.32 160 110.6 155.363 110.6 149.6C110.6 143.828 115.228 139.2 121 139.2H145.7C151.38 139.2 156.1 143.837 156.1 149.6C156.1 155.372 151.472 160 145.7 160H144.2Z" fill="#FF0000" stroke="#FFF500" stroke-width="3"/>
</g>
<defs>
<filter id="filter0_d_7_58" x="0" y="0" width="256.6" height="180.6" filterUnits="userSpaceOnUse" color-interpolation-filters="sRGB">
<feFlood flood-opacity="0" result="BackgroundImageFix"/>
<feColorMatrix in="SourceAlpha" type="matrix" values="0 0 0 0 0 0 0 0 0 0 0 0 0 0 0 0 0 0 127 0" result="hardAlpha"/>
<feOffset dy="4"/>
<feGaussianBlur stdDeviation="2"/>
<feComposite in2="hardAlpha" operator="out"/>
<feColorMatrix type="matrix" values="0 0 0 0 0 0 0 0 0 0 0 0 0 0 0 0 0 0 0.25 0"/>
<feBlend mode="normal" in2="BackgroundImageFix" result="effect1_dropShadow_7_58"/>
<feBlend mode="normal" in="SourceGraphic" in2="effect1_dropShadow_7_58" result="shape"/>
</filter>
</defs>
</svg>
