<svg width="173" height="171" viewBox="0 0 173 171" fill="none" xmlns="http://www.w3.org/2000/svg">
<g filter="url(#filter0_d_9_81)">
<path d="M120.178 4.22958L119.444 3.49847L118.409 3.5L54.3558 3.59488L53.3203 3.59641L52.5891 4.32977L8.22958 48.8229L7.49845 49.5563L7.5 50.5918L7.59444 113.42L7.596 114.456L8.32933 115.187L52.8225 159.546L53.5558 160.277L54.5913 160.276L118.644 160.181L119.68 160.179L120.411 159.446L164.77 114.953L165.502 114.22L165.5 113.184L165.406 50.3558L165.404 49.3203L164.671 48.5891L120.178 4.22958Z" fill="#00A3FF" stroke="#FFF500" stroke-width="5"/>
<g filter="url(#filter1_d_9_81)">
<path d="M87.052 16.1081C81.1099 16.1081 76.3022 20.9158 76.3022 26.8579L76.3022 28.2624C74.5196 26.9119 72.3048 26.1016 69.8739 26.1016C63.9318 26.1016 59.1241 30.9093 59.1241 36.8514L59.1241 61.3222C54.4784 57.4868 48.9145 57.0546 45.6733 58.027C42.3241 58.9993 42 60.944 42 61.7543L42 101.458L42 101.566C42.5942 113.991 47.618 125.443 56.045 133.924C64.6341 142.405 75.816 147.051 87.6462 147.051C112.117 147.051 132.05 127.118 132.05 102.647L132.05 51.8688C132.05 45.9267 127.242 41.119 121.3 41.119C118.923 41.119 116.709 41.9292 114.872 43.2797L114.872 35.3929C114.872 29.4508 110.064 24.6431 104.122 24.6431C101.745 24.6431 99.5305 25.4534 97.6938 26.8039C97.7478 20.9158 92.9401 16.1081 87.052 16.1081ZM93.4803 26.8039L93.4803 74.3408C91.5356 74.6109 89.861 75.043 89.753 75.0971C88.6186 75.4212 87.9163 76.6096 88.2945 77.744C88.6186 78.8784 89.807 79.5806 90.9414 79.2565C90.9414 79.2565 93.5343 78.5003 95.6411 78.5003C97.7478 78.5003 100.341 79.2025 100.341 79.2565C101.475 79.5806 102.664 78.9324 102.988 77.798C103.042 77.5819 103.096 77.4199 103.096 77.2038C103.096 76.2855 102.502 75.4212 101.529 75.1511C101.421 75.1511 99.7465 74.6649 97.8019 74.3948L97.8019 35.3929C97.8019 31.8817 100.665 28.9646 104.23 28.9646C107.795 28.9646 110.658 31.8276 110.658 35.3929L110.658 78.0681C108.714 78.3382 107.039 78.7704 106.931 78.8244C105.797 79.1485 105.094 80.3369 105.473 81.4713C105.797 82.6057 106.985 83.308 108.12 82.9839C108.12 82.9839 110.712 82.2276 112.819 82.2276C114.926 82.2276 117.519 82.9298 117.519 82.9839C118.653 83.308 119.842 82.6597 120.166 81.5253C120.22 81.3093 120.274 81.1472 120.274 80.9311C120.274 80.0128 119.68 79.1485 118.707 78.8784C118.599 78.8784 116.925 78.3922 114.98 78.1221L114.98 51.9768C114.98 48.4656 117.843 45.5485 121.408 45.5485C124.974 45.5485 127.837 48.4115 127.837 51.9768L127.837 102.755C127.837 124.849 109.848 142.837 87.7543 142.837C65.7685 142.837 47.672 124.687 46.4836 101.512L46.4836 62.4025C47.0778 62.1324 48.5363 61.7543 50.6431 62.0244C52.7498 62.2945 56.6932 63.5369 59.6643 68.2366C61.663 71.4778 61.1228 77.9601 60.6907 83.1999C60.6366 83.7941 60.5826 84.3343 60.5286 84.8745L60.5286 84.9826C60.3125 87.8996 60.2585 91.951 62.4733 94.0038C64.418 95.7324 67.173 96.5967 69.8739 97.407C72.3048 98.1633 74.7897 98.9195 76.4643 100.216C81.5421 104.213 84.6752 112.424 85.4315 118.799C85.5935 119.987 86.6739 120.797 87.8623 120.689C89.0507 120.527 89.861 119.447 89.753 118.258C88.8887 111.56 85.6475 101.945 79.1652 96.8128C76.8424 94.9761 73.8173 94.0578 71.1704 93.2475C68.8476 92.5453 66.6328 91.843 65.3903 90.7626C65.3363 90.7086 64.472 89.8983 64.8501 85.3067L64.8501 85.1986C64.9042 84.6585 64.9582 84.1183 65.0122 83.5241C65.4984 77.636 66.0386 70.9376 63.6617 66.508L63.6617 36.8514C63.6617 33.3402 66.5247 30.4232 70.09 30.4232C73.6012 30.4232 76.5183 33.2862 76.5183 36.8514L76.5183 76.4475C74.5736 76.7176 72.899 77.1498 72.791 77.2038C71.6566 77.5279 70.9543 78.7163 71.3324 79.8507C71.6566 80.9852 72.845 81.6874 73.9794 81.3633C73.9794 81.3633 76.5723 80.607 78.6791 80.607C80.7858 80.607 83.3787 81.3093 83.3787 81.3633C84.5131 81.6874 85.7016 81.0392 86.0257 79.9048C86.0797 79.6887 86.1337 79.5266 86.1337 79.3106C86.1337 78.3922 85.5395 77.5279 84.5671 77.2578C84.4591 77.2578 82.7845 76.7717 80.8398 76.5016L80.8398 26.9119C80.8398 23.4006 83.7028 20.4836 87.2681 20.4836C90.8334 20.4836 93.4803 23.2926 93.4803 26.8039Z" fill="white"/>
</g>
</g>
<defs>
<filter id="filter0_d_9_81" x="0.996895" y="0.996948" width="171.006" height="169.782" filterUnits="userSpaceOnUse" color-interpolation-filters="sRGB">
<feFlood flood-opacity="0" result="BackgroundImageFix"/>
<feColorMatrix in="SourceAlpha" type="matrix" values="0 0 0 0 0 0 0 0 0 0 0 0 0 0 0 0 0 0 127 0" result="hardAlpha"/>
<feOffset dy="4"/>
<feGaussianBlur stdDeviation="2"/>
<feComposite in2="hardAlpha" operator="out"/>
<feColorMatrix type="matrix" values="0 0 0 0 0 0 0 0 0 0 0 0 0 0 0 0 0 0 0.25 0"/>
<feBlend mode="normal" in2="BackgroundImageFix" result="effect1_dropShadow_9_81"/>
<feBlend mode="normal" in="SourceGraphic" in2="effect1_dropShadow_9_81" result="shape"/>
</filter>
<filter id="filter1_d_9_81" x="38" y="16.1081" width="98.05" height="138.943" filterUnits="userSpaceOnUse" color-interpolation-filters="sRGB">
<feFlood flood-opacity="0" result="BackgroundImageFix"/>
<feColorMatrix in="SourceAlpha" type="matrix" values="0 0 0 0 0 0 0 0 0 0 0 0 0 0 0 0 0 0 127 0" result="hardAlpha"/>
<feOffset dy="4"/>
<feGaussianBlur stdDeviation="2"/>
<feComposite in2="hardAlpha" operator="out"/>
<feColorMatrix type="matrix" values="0 0 0 0 0 0 0 0 0 0 0 0 0 0 0 0 0 0 0.25 0"/>
<feBlend mode="normal" in2="BackgroundImageFix" result="effect1_dropShadow_9_81"/>
<feBlend mode="normal" in="SourceGraphic" in2="effect1_dropShadow_9_81" result="shape"/>
</filter>
</defs>
</svg>
