<svg width="257" height="181" viewBox="0 0 257 181" fill="none" xmlns="http://www.w3.org/2000/svg">
<g filter="url(#filter0_d_7_5)">
<path d="M91.2 1.5H91.1641L91.1283 1.50171C67.767 2.61899 46.2129 12.0675 30.2427 27.936L30.2377 27.941L30.2326 27.9461C14.2618 44.1203 5.5 65.1965 5.5 87.5C5.5 133.628 43.0716 171.2 89.2 171.2H183.2C195.028 171.2 204.6 161.628 204.6 149.8C204.6 146.049 203.589 142.511 201.848 139.4H213.7C225.528 139.4 235.1 129.828 235.1 118C235.1 114.191 234.057 110.601 232.266 107.455C242.75 106.214 250.9 97.2196 250.9 86.4C250.9 74.6302 241.423 65.0949 229.676 65.0007C231.404 61.9384 232.4 58.4005 232.4 54.6C232.4 42.7716 222.828 33.2 211 33.2H168.697C174.419 24.7596 175.003 15.2647 173.239 9.37588C172.266 6.02779 170.749 4.01014 169.102 2.8489C167.461 1.69272 165.853 1.5 164.9 1.5H91.4H91.2ZM131.058 94.0121L131.06 94.0196L131.06 94.0197L131.06 94.02L131.06 94.021L131.063 94.0289L131.073 94.0646C131.082 94.0972 131.096 94.1469 131.114 94.2125C131.15 94.3437 131.203 94.5379 131.266 94.7841C131.393 95.2772 131.562 95.9758 131.731 96.7921C132.074 98.4432 132.4 100.502 132.4 102.3C132.4 104.108 132.096 106.174 131.767 107.818C131.635 108.475 131.503 109.051 131.39 109.5H131.369L131.058 110.588C130.234 113.471 131.878 116.511 134.788 117.342L134.812 117.349L134.836 117.355C134.877 117.365 134.924 117.378 134.975 117.392C135.279 117.473 135.755 117.6 136.3 117.6C138.642 117.6 140.857 116.08 141.545 113.601L141.6 113.404V113.336C141.6 113.335 141.601 113.333 141.601 113.331C141.624 113.233 141.658 113.093 141.705 112.902C141.797 112.528 141.928 111.999 142.074 111.361C142.298 110.389 142.561 109.156 142.787 107.8H213.7C219.38 107.8 224.1 112.437 224.1 118.2C224.1 123.972 219.472 128.6 213.7 128.6H135.991C135.774 127.254 135.529 126.027 135.315 125.053C135.174 124.413 135.045 123.876 134.943 123.481C134.892 123.284 134.846 123.117 134.808 122.985L134.804 122.973C134.79 122.924 134.761 122.824 134.721 122.715C133.881 119.923 130.906 118.103 127.956 119.067C125.123 119.894 123.32 122.882 124.158 125.812L124.16 125.82L124.16 125.82L124.16 125.82L124.16 125.821L124.163 125.829L124.173 125.865C124.182 125.897 124.196 125.947 124.214 126.013C124.25 126.144 124.303 126.338 124.366 126.584C124.493 127.077 124.662 127.776 124.831 128.592C125.174 130.243 125.5 132.302 125.5 134.1C125.5 135.908 125.196 137.974 124.867 139.618C124.735 140.275 124.603 140.851 124.49 141.3H124.469L124.158 142.388C123.334 145.271 124.978 148.311 127.888 149.142L127.912 149.149L127.936 149.155C127.977 149.165 128.024 149.178 128.075 149.192C128.379 149.273 128.855 149.4 129.4 149.4C131.742 149.4 133.957 147.88 134.645 145.401L134.7 145.204V145.136C134.7 145.135 134.701 145.133 134.701 145.131C134.724 145.033 134.758 144.893 134.805 144.702L134.821 144.638C134.912 144.269 135.036 143.763 135.174 143.161C135.398 142.189 135.661 140.956 135.887 139.6H183C188.68 139.6 193.4 144.237 193.4 150C193.4 155.772 188.772 160.4 183 160.4H89C48.9284 160.4 16.3 127.772 16.3 87.7C16.3 47.8828 49.1804 14.9808 91.3386 12.8H162.64C162.967 13.9913 163.267 16.0455 162.912 18.8093C162.456 22.3693 160.341 29.218 152.106 34.4276C149.47 36.0496 145.325 36.7263 140.404 36.8379C135.544 36.948 130.212 36.5083 125.353 36.1076L125.336 36.1062C125.334 36.106 125.332 36.1058 125.33 36.1056C124.24 36.0065 123.248 35.9073 122.249 35.8074L122.175 35.8H122.1H121.955C119.24 35.6004 115.906 35.4694 112.735 35.9279C109.563 36.3867 106.338 37.4658 104.1 39.8804L104.089 39.8918L104.079 39.9035C100.622 43.792 98.9459 49.2271 97.4654 54.1618C97.4647 54.1642 97.464 54.1666 97.4633 54.169L97.4383 54.249C96.0209 58.8052 94.6977 63.0583 92.5174 65.8772C89.0185 70.3193 83.6031 73.9914 77.5326 76.7329C71.4735 79.4693 64.8722 81.2284 59.1233 81.9104L59.1103 81.912L59.0973 81.9138C56.0573 82.3283 54.0377 85.083 54.3062 88.0358L54.3092 88.0693L54.3138 88.1027C54.7283 91.1427 57.483 93.1623 60.4358 92.8938L60.4639 92.8913L60.492 92.8877C73.0509 91.2672 91.32 85.1808 101.176 72.7311L101.177 72.7304C104.73 68.2362 106.5 62.4532 107.969 57.652L108.034 57.4391L108.036 57.4341C108.687 55.2786 109.321 53.2374 110.031 51.4555C110.727 49.7104 111.455 48.3242 112.262 47.3661C112.278 47.3562 112.3 47.343 112.33 47.3271C112.477 47.2486 112.809 47.1025 113.428 46.9637C114.678 46.6836 117.013 46.452 121.177 46.7949L121.238 46.8H121.3H121.425C122.4 46.8975 123.384 46.9956 124.464 47.0939L124.477 47.0949C129.911 47.5436 135.824 48.0276 141.414 47.8366C146.848 47.6509 152.133 46.8255 156.47 44.6H211C216.68 44.6 221.4 49.2366 221.4 55C221.4 60.6798 216.763 65.4 211 65.4H138.991C138.774 64.0543 138.529 62.8273 138.315 61.8527C138.174 61.2126 138.045 60.676 137.943 60.2811C137.892 60.0845 137.846 59.9166 137.808 59.7855L137.804 59.7727C137.79 59.7243 137.761 59.624 137.721 59.5156C136.882 56.723 133.906 54.9032 130.957 55.8667C128.124 56.6942 126.32 59.6815 127.158 62.6121L127.16 62.6196L127.16 62.6197L127.16 62.62L127.16 62.621L127.163 62.6289L127.173 62.6646C127.182 62.6972 127.196 62.7469 127.214 62.8125C127.25 62.9437 127.303 63.1379 127.366 63.3841C127.493 63.8772 127.662 64.5758 127.831 65.3921C128.174 67.0432 128.5 69.1016 128.5 70.9C128.5 72.7084 128.196 74.7739 127.867 76.4183C127.735 77.0746 127.603 77.6506 127.49 78.1H127.469L127.158 79.1879C126.334 82.0714 127.978 85.111 130.888 85.9423L130.912 85.9492L130.936 85.9552C130.977 85.9655 131.024 85.9779 131.075 85.9916C131.379 86.0728 131.855 86.2 132.4 86.2C134.742 86.2 136.957 84.6804 137.645 82.2015L137.7 82.0045V81.9364C137.7 81.9346 137.701 81.9327 137.701 81.9309C137.724 81.8326 137.758 81.6925 137.805 81.5018L137.821 81.4389C137.911 81.0695 138.036 80.5637 138.174 79.9612C138.398 78.9892 138.661 77.7561 138.887 76.4H229.4C235.08 76.4 239.8 81.0366 239.8 86.8C239.8 92.5294 235.314 96.8 229.6 96.8H142.891C142.674 95.4543 142.429 94.2273 142.215 93.2527C142.074 92.6126 141.945 92.076 141.843 91.6811C141.792 91.4845 141.746 91.3166 141.708 91.1855C141.696 91.1439 141.665 91.0346 141.621 90.9155C140.781 88.123 137.806 86.3031 134.856 87.2668C132.023 88.0944 130.22 91.0816 131.058 94.0121ZM141.583 113.415C141.583 113.413 141.583 113.411 141.584 113.408C141.58 113.434 141.578 113.439 141.583 113.415ZM134.683 145.215C134.683 145.213 134.683 145.211 134.684 145.208C134.68 145.234 134.678 145.239 134.683 145.215ZM137.683 82.0151C137.683 82.0134 137.683 82.0112 137.684 82.0084C137.682 82.0222 137.68 82.0301 137.68 82.0306C137.68 82.031 137.681 82.0261 137.683 82.0151Z" fill="#00A3FF" stroke="#FFF500" stroke-width="3"/>
</g>
<defs>
<filter id="filter0_d_7_5" x="0" y="0" width="256.4" height="180.7" filterUnits="userSpaceOnUse" color-interpolation-filters="sRGB">
<feFlood flood-opacity="0" result="BackgroundImageFix"/>
<feColorMatrix in="SourceAlpha" type="matrix" values="0 0 0 0 0 0 0 0 0 0 0 0 0 0 0 0 0 0 127 0" result="hardAlpha"/>
<feOffset dy="4"/>
<feGaussianBlur stdDeviation="2"/>
<feComposite in2="hardAlpha" operator="out"/>
<feColorMatrix type="matrix" values="0 0 0 0 0 0 0 0 0 0 0 0 0 0 0 0 0 0 0.25 0"/>
<feBlend mode="normal" in2="BackgroundImageFix" result="effect1_dropShadow_7_5"/>
<feBlend mode="normal" in="SourceGraphic" in2="effect1_dropShadow_7_5" result="shape"/>
</filter>
</defs>
</svg>
