<svg width="173" height="171" viewBox="0 0 173 171" fill="none" xmlns="http://www.w3.org/2000/svg">
<g filter="url(#filter0_d_9_77)">
<path d="M120.178 4.22958L119.444 3.49847L118.409 3.5L54.3558 3.59488L53.3203 3.59641L52.5891 4.32977L8.22958 48.8229L7.49845 49.5563L7.5 50.5918L7.59444 113.42L7.596 114.456L8.32933 115.187L52.8225 159.546L53.5558 160.277L54.5913 160.276L118.644 160.181L119.68 160.179L120.411 159.446L164.77 114.953L165.502 114.22L165.5 113.184L165.406 50.3558L165.404 49.3203L164.671 48.5891L120.178 4.22958Z" fill="#00A3FF" stroke="#FFF500" stroke-width="5"/>
<g filter="url(#filter1_d_9_77)">
<path d="M85.998 36.9594C82.2167 36.9594 78.8675 38.9582 76.9768 41.9292C75.0321 39.6604 72.1151 38.2019 68.8739 38.2019C62.9318 38.2019 58.1241 43.0096 58.1241 48.9517L58.1241 51.9768C55.3151 53.2732 52.4521 55.2179 49.427 57.9189C46.0778 60.944 41 65.5896 41 72.18L41 80.9311L41 81.0391C41.5942 93.4635 46.618 104.916 55.045 113.397C63.58 121.878 74.762 126.523 86.5922 126.523C111.063 126.523 130.996 106.59 130.996 82.1195L130.996 70.3973L130.996 69.587L130.996 57.0546C130.996 51.1125 126.188 46.3048 120.246 46.3048C117.761 46.3048 115.492 47.1691 113.656 48.5736C112.738 43.5498 108.362 39.7684 103.122 39.7684C100.205 39.7684 97.5041 40.9569 95.5594 42.8475C93.8308 39.3903 90.2115 36.9594 85.998 36.9594ZM79.5697 47.6552C79.5697 44.144 82.4327 41.227 85.998 41.227C89.5633 41.227 92.4263 44.09 92.4263 47.6552L92.4263 50.5183L92.4263 50.6803C89.9954 50.6263 84.8636 50.5723 79.6237 50.4643L79.6237 48.8977L79.5697 47.6552ZM62.4456 48.8977C62.4456 45.3864 65.3086 42.4694 68.8739 42.4694C72.3852 42.4694 75.3022 45.3324 75.3022 48.8977L75.3022 50.3562C70.9807 50.3022 67.0913 50.2482 65.2006 50.2482C64.2823 50.2482 63.418 50.3562 62.4456 50.5183L62.4456 48.8977ZM86.5922 122.202C64.6064 122.202 46.51 104.051 45.3215 80.8771L45.3215 72.18C45.3215 67.8584 48.5087 64.6173 52.344 61.106C55.3691 58.3511 58.2861 56.4604 60.9331 55.434C61.0411 55.38 61.0951 55.38 61.2032 55.326C62.6077 54.8398 63.9041 54.5697 65.2006 54.5697C70.1164 54.5697 89.4012 54.8938 93.1285 54.9478C93.3986 55.5421 93.7228 57.0546 93.3986 59.1073C93.0745 61.2141 91.7781 65.1575 86.9704 67.9665C84.2694 69.587 80.7581 69.425 76.6527 69.2629C75.3022 69.2089 73.9517 69.1549 72.4932 69.1549C67.8475 69.1549 65.1466 70.1813 64.0122 72.396L62.4996 75.5292L66.0109 75.5292C69.036 75.5292 71.5209 76.6095 75.3022 79.5806C80.38 83.578 83.5131 91.789 84.2694 98.1632C84.4315 99.3516 85.5118 100.162 86.7003 100.054C87.8887 99.8918 88.699 98.8115 88.5909 97.623C88.0507 93.4095 86.5922 88.1156 83.9453 83.416C84.5935 83.524 85.2958 83.632 85.998 83.632C89.7794 83.632 93.1285 81.6333 95.0192 78.6623C96.9639 80.9311 99.8809 82.3896 103.122 82.3896C106.903 82.3896 110.253 80.3909 112.143 77.4198C114.088 79.6886 117.005 81.1472 120.246 81.1472C122.623 81.1472 124.838 80.3369 126.674 78.9864L126.674 82.1195C126.674 104.213 108.686 122.202 86.5922 122.202ZM92.4263 72.8822C92.4263 76.3935 89.5633 79.3105 85.998 79.3105C82.7569 79.3105 80.0559 76.8796 79.6778 73.7465C83.081 73.8005 86.2681 73.4764 89.2392 71.7478C90.4816 71.0456 91.508 70.2353 92.4263 69.371L92.4263 71.6938L92.4263 72.8822ZM74.2218 73.5305C74.1678 73.5305 74.1678 73.5305 74.1138 73.5305C74.1678 73.5305 74.1678 73.5305 74.2218 73.5305ZM126.674 57.0546L126.674 69.587L126.674 70.3973C126.674 73.9086 123.811 76.8256 120.246 76.8256C116.681 76.8256 113.818 73.9626 113.818 70.3973L113.818 57.0546C113.818 53.5433 116.681 50.6263 120.246 50.6263C123.811 50.6263 126.674 53.5433 126.674 57.0546ZM109.55 50.5183L109.55 57.0546L109.55 70.3973L109.55 71.6398C109.55 75.151 106.687 78.0681 103.122 78.0681C99.5568 78.0681 96.6938 75.205 96.6938 71.6398L96.6938 63.1047C97.9903 59.8636 98.0443 56.6765 97.4501 54.4617C97.234 53.7054 96.9639 53.0572 96.6938 52.571L96.6938 50.5183C96.6938 47.007 99.5568 44.09 103.122 44.09C106.687 44.09 109.55 47.007 109.55 50.5183Z" fill="white"/>
</g>
</g>
<defs>
<filter id="filter0_d_9_77" x="0.996887" y="0.996948" width="171.006" height="169.782" filterUnits="userSpaceOnUse" color-interpolation-filters="sRGB">
<feFlood flood-opacity="0" result="BackgroundImageFix"/>
<feColorMatrix in="SourceAlpha" type="matrix" values="0 0 0 0 0 0 0 0 0 0 0 0 0 0 0 0 0 0 127 0" result="hardAlpha"/>
<feOffset dy="4"/>
<feGaussianBlur stdDeviation="2"/>
<feComposite in2="hardAlpha" operator="out"/>
<feColorMatrix type="matrix" values="0 0 0 0 0 0 0 0 0 0 0 0 0 0 0 0 0 0 0.25 0"/>
<feBlend mode="normal" in2="BackgroundImageFix" result="effect1_dropShadow_9_77"/>
<feBlend mode="normal" in="SourceGraphic" in2="effect1_dropShadow_9_77" result="shape"/>
</filter>
<filter id="filter1_d_9_77" x="37" y="36.9594" width="97.996" height="97.5639" filterUnits="userSpaceOnUse" color-interpolation-filters="sRGB">
<feFlood flood-opacity="0" result="BackgroundImageFix"/>
<feColorMatrix in="SourceAlpha" type="matrix" values="0 0 0 0 0 0 0 0 0 0 0 0 0 0 0 0 0 0 127 0" result="hardAlpha"/>
<feOffset dy="4"/>
<feGaussianBlur stdDeviation="2"/>
<feComposite in2="hardAlpha" operator="out"/>
<feColorMatrix type="matrix" values="0 0 0 0 0 0 0 0 0 0 0 0 0 0 0 0 0 0 0.25 0"/>
<feBlend mode="normal" in2="BackgroundImageFix" result="effect1_dropShadow_9_77"/>
<feBlend mode="normal" in="SourceGraphic" in2="effect1_dropShadow_9_77" result="shape"/>
</filter>
</defs>
</svg>
