<svg width="257" height="181" viewBox="0 0 180 181" fill="none" xmlns="http://www.w3.org/2000/svg">
<g filter="url(#filter0_d_7_14)">
<path d="M135.119 17.601L135.113 17.5946C129.591 11.4802 120.563 1.5 107.6 1.5H91.4H91.2H91.1642L91.1283 1.50171C67.767 2.61899 46.2129 12.0675 30.2427 27.936L30.2427 27.9359L30.236 27.9427C14.2614 44.019 5.5 65.0973 5.5 87.4C5.5 133.528 43.0716 171.1 89.2 171.1H110.9H112.4H135.6C147.428 171.1 157 161.528 157 149.7C157 145.557 155.794 141.723 153.774 138.451C162.654 135.833 169.1 127.658 169.1 118C169.1 112.883 167.265 108.107 164.258 104.398C170.236 100.681 174.3 93.9871 174.3 86.3C174.3 79.4479 171.008 73.3161 165.969 69.4315C169.682 65.6164 172 60.3664 172 54.6C172 42.7716 162.428 33.2 150.6 33.2H145.949C143.482 28.1179 139.918 22.9754 135.119 17.601ZM150.7 76H150.733L150.765 75.9986L153.031 75.9C158.697 75.9171 163.4 80.5472 163.4 86.3C163.4 92.0716 158.772 96.7 153 96.7H148.93C148.964 94.8815 148.999 92.5523 149.039 89.9001C149.1 85.8057 149.173 80.9418 149.27 76H150.7ZM137.201 40.4423L137.227 40.5079L137.259 40.5731C137.259 40.5724 137.259 40.572 137.259 40.5728C137.261 40.5771 137.263 40.5837 137.277 40.6243L137.279 40.6311C137.303 40.7018 137.342 40.8195 137.409 40.9668C138.255 43.4295 138.7 45.636 138.7 47.8C138.7 55.0639 138.317 79.3252 138.112 92.2962C138.072 94.8422 138.038 96.9532 138.016 98.4153C136.825 98.7088 134.74 98.9456 132.034 98.5183L132.028 98.5174C128.449 97.9668 121.61 95.7547 116.695 87.3433L116.691 87.3358L116.686 87.3283C115.348 85.0983 114.71 82.4755 114.457 79.4024C114.21 76.3795 114.342 73.0365 114.489 69.3089L114.499 69.06L114.499 69.0592L114.499 69.0481C114.599 66.5552 114.7 64.0301 114.7 61.3C114.7 52.6311 112.809 46.7877 107.884 44.2649L107.868 44.2569L107.852 44.2492L102.052 41.4492L99.9 40.4102V42.8V49.3C99.9 54.4174 98.1264 58.6928 92.7214 65.5722C89.2226 70.0165 83.8055 73.6904 77.7326 76.4329C71.6735 79.1693 65.0722 80.9284 59.3233 81.6105L59.3103 81.612L59.2973 81.6138C56.2573 82.0283 54.2377 84.783 54.5062 87.7358L54.5092 87.7693L54.5138 87.8027C54.9283 90.8427 57.683 92.8623 60.6358 92.5938L60.6633 92.5913L60.6907 92.5878C67.8814 91.6659 76.735 89.3311 84.9402 85.1911C84.9148 85.5568 84.9 85.9275 84.9 86.3C84.9 93.1521 88.1917 99.2839 93.2311 103.169C89.5177 106.984 87.2 112.234 87.2 118C87.2 124.852 90.4917 130.984 95.5311 134.869C91.8177 138.684 89.5 143.934 89.5 149.7C89.5 153.451 90.5108 156.988 92.2521 160.1H89.2C49.1284 160.1 16.5 127.472 16.5 87.4C16.5 47.5828 49.3804 14.6808 91.5386 12.5H107.6C114.838 12.5 120.406 17.8178 126.991 25.0105C132.007 30.5174 135.387 35.7626 137.201 40.4423ZM140.789 108.949L140.8 108.946L140.812 108.942C142.138 108.564 143.318 108.095 144.276 107.6H147.7C153.38 107.6 158.1 112.237 158.1 118C158.1 123.763 153.38 128.4 147.7 128.4H135.6H110.9H108.6C102.92 128.4 98.2 123.763 98.2 118C98.2 112.228 102.828 107.6 108.6 107.6H124.115C130.305 110.009 136.421 110.121 140.789 108.949ZM150.7 44.2C156.38 44.2 161.1 48.8366 161.1 54.6C161.1 60.2798 156.463 65 150.7 65H149.519C149.529 64.2353 149.538 63.4797 149.548 62.7358C149.629 56.3028 149.7 50.7475 149.7 47.8C149.7 46.5694 149.602 45.397 149.444 44.2H150.7ZM106.3 96.7C100.62 96.7 95.9 92.0634 95.9 86.3C95.9 81.6593 98.9835 77.7095 103.192 76.4422C103.242 82.1803 104.029 87.7666 107.099 93.0463C107.855 94.3837 108.675 95.5903 109.537 96.7H108.5H106.3ZM135.6 160.1H112.4H110.9C105.22 160.1 100.5 155.463 100.5 149.7C100.5 143.928 105.128 139.3 110.9 139.3H135.6C141.28 139.3 146 143.937 146 149.7C146 155.463 141.28 160.1 135.6 160.1Z" fill="#00A3FF" stroke="#FFF500" stroke-width="3"/>
</g>
<defs>
<filter id="filter0_d_7_14" x="0" y="0" width="179.8" height="180.6" filterUnits="userSpaceOnUse" color-interpolation-filters="sRGB">
<feFlood flood-opacity="0" result="BackgroundImageFix"/>
<feColorMatrix in="SourceAlpha" type="matrix" values="0 0 0 0 0 0 0 0 0 0 0 0 0 0 0 0 0 0 127 0" result="hardAlpha"/>
<feOffset dy="4"/>
<feGaussianBlur stdDeviation="2"/>
<feComposite in2="hardAlpha" operator="out"/>
<feColorMatrix type="matrix" values="0 0 0 0 0 0 0 0 0 0 0 0 0 0 0 0 0 0 0.25 0"/>
<feBlend mode="normal" in2="BackgroundImageFix" result="effect1_dropShadow_7_14"/>
<feBlend mode="normal" in="SourceGraphic" in2="effect1_dropShadow_7_14" result="shape"/>
</filter>
</defs>
</svg>
