<svg width="257" height="181" viewBox="0 0 257 181" fill="none" xmlns="http://www.w3.org/2000/svg">
<g filter="url(#filter0_d_7_17)">
<path d="M173.62 22.3346C174.744 17.3957 174.467 12.808 173.548 9.40864L173.544 9.39518L173.541 9.38178C172.567 6.03016 171.05 4.01082 169.402 2.8489C167.761 1.69272 166.153 1.5 165.2 1.5H91.4H91.2H91.1641L91.1283 1.50171C67.767 2.61899 46.2129 12.0675 30.2427 27.936L30.2393 27.9393C14.261 43.9177 5.5 64.998 5.5 87.3C5.5 133.428 43.0716 171 89.2 171H110.9H112.4H135.6C147.428 171 157 161.428 157 149.6C157 145.091 155.583 140.895 153.217 137.484C160.787 134.176 166.1 126.641 166.1 117.9C166.1 114.149 165.089 110.612 163.348 107.5H229.7C241.528 107.5 251.1 97.9284 251.1 86.1C251.1 74.2472 241.304 64.8 229.6 64.8H179.51L210.257 57.2568C221.653 54.4617 228.761 42.8533 225.855 31.4342C224.458 25.8512 221.014 21.2192 216.172 18.3138C211.35 15.4205 205.543 14.443 200.036 15.8448C200.034 15.8454 200.032 15.8459 200.029 15.8465L173.62 22.3346ZM122.349 35.5074L122.275 35.5H122.2H122.055C119.34 35.3004 116.006 35.1694 112.835 35.6279C109.663 36.0867 106.438 37.1658 104.2 39.5804L104.189 39.5918L104.179 39.6035C100.722 43.492 99.0459 48.9272 97.5654 53.8619C97.5647 53.8642 97.564 53.8666 97.5633 53.869L97.5384 53.9487C96.1209 58.505 94.7978 62.7582 92.6174 65.5772C89.1185 70.0193 83.7031 73.6914 77.6326 76.4329C71.5735 79.1693 64.9722 80.9284 59.2233 81.6104L59.2103 81.612L59.1973 81.6138C56.1573 82.0283 54.1377 84.783 54.4062 87.7358L54.4092 87.7693L54.4138 87.8027C54.8283 90.8427 57.583 92.8623 60.5358 92.5938L60.558 92.5918L60.5801 92.5891C73.1574 91.0677 91.4227 84.8774 101.276 72.4311L101.277 72.4304C104.83 67.9362 106.6 62.1531 108.069 57.352L108.134 57.1391L108.136 57.1341C108.787 54.9786 109.421 52.9374 110.131 51.1555C110.827 49.4104 111.555 48.0242 112.362 47.0661C112.378 47.0562 112.4 47.043 112.43 47.0271C112.577 46.9486 112.909 46.8025 113.528 46.6637C114.778 46.3836 117.113 46.152 121.277 46.4949L121.338 46.5H121.4H121.525C122.5 46.5975 123.484 46.6956 124.564 46.7938L124.569 46.7943C130.257 47.2932 136.454 47.8037 142.269 47.5359C148.067 47.2689 153.669 46.2237 158.089 43.4759C161.951 41.0986 164.992 38.3261 167.279 35.3285L202.558 26.6566L202.566 26.6546L202.575 26.6524C205.275 25.9555 208.051 26.3896 210.401 27.8694L210.418 27.8801L210.435 27.8904C212.778 29.2785 214.442 31.54 215.147 34.2744C216.538 39.7629 213.135 45.4323 207.558 46.7396L207.55 46.7415L207.542 46.7435L138.807 63.6581C138.624 62.6639 138.436 61.7746 138.276 61.0603C138.155 60.5185 138.05 60.0759 137.976 59.766L137.96 59.6982C137.935 59.5932 137.915 59.51 137.9 59.4453V59.3899L137.842 59.1879C137.033 56.3546 134.032 54.4949 131.057 55.4667C128.224 56.2942 126.42 59.2815 127.258 62.2121L127.26 62.2196L127.26 62.2197L127.26 62.22L127.26 62.221L127.263 62.2289L127.273 62.2646C127.282 62.2972 127.296 62.3469 127.314 62.4125C127.35 62.5437 127.403 62.7379 127.466 62.9841C127.593 63.4772 127.762 64.1758 127.931 64.9921C128.274 66.6432 128.6 68.7016 128.6 70.5C128.6 72.3084 128.296 74.3739 127.967 76.0183C127.835 76.6746 127.703 77.2506 127.59 77.7H127.569L127.258 78.7879C126.434 81.6714 128.078 84.711 130.988 85.5423L131.012 85.5491L131.036 85.5552C131.077 85.5655 131.124 85.5779 131.175 85.5916C131.479 85.6728 131.955 85.8 132.5 85.8C134.842 85.8 137.057 84.2804 137.745 81.8015L137.8 81.6045V81.5364C137.8 81.5346 137.801 81.5327 137.801 81.5308C137.824 81.4326 137.858 81.2925 137.905 81.1018L137.921 81.0389C138.011 80.6694 138.136 80.1637 138.274 79.5612C138.498 78.5892 138.761 77.3561 138.987 76H229.5C235.18 76 239.9 80.6366 239.9 86.4C239.9 92.1466 235.297 96.6 229.6 96.6H144.6H137.8H108.5C96.6716 96.6 87.1 106.172 87.1 118C87.1 124.852 90.3917 130.984 95.4311 134.869C91.7177 138.684 89.4 143.934 89.4 149.7C89.4 153.451 90.4108 156.988 92.1521 160.1H89.1C49.0284 160.1 16.4 127.472 16.4 87.4C16.4 47.5827 49.2804 14.6808 91.4386 12.5H162.74C163.067 13.6913 163.367 15.7455 163.012 18.5093C162.556 22.0693 160.441 28.918 152.206 34.1276C149.57 35.7496 145.425 36.4263 140.503 36.5379C135.644 36.648 130.313 36.2083 125.453 35.8076L125.436 35.8062C125.434 35.806 125.432 35.8058 125.43 35.8056C124.34 35.7065 123.348 35.6073 122.349 35.5074ZM137.783 81.6151C137.783 81.6134 137.783 81.6111 137.784 81.6082C137.78 81.6338 137.778 81.6393 137.783 81.6151ZM135.6 160H112.4H110.9C105.22 160 100.5 155.363 100.5 149.6C100.5 143.828 105.128 139.2 110.9 139.2H135.6C141.28 139.2 146 143.837 146 149.6C146 155.363 141.28 160 135.6 160ZM155 117.9C155 123.58 150.363 128.3 144.6 128.3H135.5H110.8H108.5C102.82 128.3 98.1 123.663 98.1 117.9C98.1 112.128 102.728 107.5 108.5 107.5H137.8H144.588C150.385 107.594 155 112.244 155 117.9Z" fill="#00A3FF" stroke="#FFF500" stroke-width="3"/>
</g>
<defs>
<filter id="filter0_d_7_17" x="0" y="0" width="256.6" height="180.5" filterUnits="userSpaceOnUse" color-interpolation-filters="sRGB">
<feFlood flood-opacity="0" result="BackgroundImageFix"/>
<feColorMatrix in="SourceAlpha" type="matrix" values="0 0 0 0 0 0 0 0 0 0 0 0 0 0 0 0 0 0 127 0" result="hardAlpha"/>
<feOffset dy="4"/>
<feGaussianBlur stdDeviation="2"/>
<feComposite in2="hardAlpha" operator="out"/>
<feColorMatrix type="matrix" values="0 0 0 0 0 0 0 0 0 0 0 0 0 0 0 0 0 0 0.25 0"/>
<feBlend mode="normal" in2="BackgroundImageFix" result="effect1_dropShadow_7_17"/>
<feBlend mode="normal" in="SourceGraphic" in2="effect1_dropShadow_7_17" result="shape"/>
</filter>
</defs>
</svg>
