<svg width="173" height="171" viewBox="0 0 173 171" fill="none" xmlns="http://www.w3.org/2000/svg">
<g filter="url(#filter0_d_9_83)">
<path d="M120.178 4.22958L119.444 3.49847L118.409 3.5L54.3558 3.59488L53.3203 3.59641L52.5891 4.32977L8.22958 48.8229L7.49845 49.5563L7.5 50.5918L7.59444 113.42L7.596 114.456L8.32933 115.187L52.8225 159.546L53.5558 160.277L54.5913 160.276L118.644 160.181L119.68 160.179L120.411 159.446L164.77 114.953L165.502 114.22L165.5 113.184L165.406 50.3558L165.404 49.3203L164.671 48.5891L120.178 4.22958Z" fill="#00A3FF" stroke="#FFF500" stroke-width="5"/>
<g filter="url(#filter1_d_9_83)">
<path d="M76.1942 26.8039L76.1942 60.5659L70.5221 37.4457C69.1176 31.7196 63.2836 28.1543 57.5575 29.6129C54.7485 30.3151 52.4257 32.0437 50.9672 34.4746C49.5087 36.9055 49.0225 39.8225 49.7247 42.5775L53.5601 58.189C50.535 57.2167 47.672 57.3247 45.6733 57.8649C42.3241 58.8373 42 60.782 42 61.5922L42 101.458L42 101.566C42.5942 113.991 47.618 125.443 56.045 133.924C64.526 142.405 75.708 147.051 87.5382 147.051C112.009 147.051 131.942 127.118 131.942 102.647L131.942 90.9247L131.942 90.1144L131.942 77.5819C131.942 71.6398 127.134 66.8321 121.192 66.8321C118.545 66.8321 116.114 67.8045 114.278 69.371C112.873 65.0495 108.822 61.9164 104.068 61.9164C101.691 61.9164 99.4764 62.7267 97.6398 64.0771L97.6398 26.7498C97.6398 20.8077 92.8321 16 86.89 16C80.9479 16 76.1942 20.9158 76.1942 26.8039ZM127.62 77.5819L127.62 90.1144L127.62 90.9247C127.62 94.4359 124.757 97.353 121.192 97.353C117.627 97.353 114.764 94.49 114.764 90.9247L114.764 77.5819C114.764 74.0707 117.627 71.1536 121.192 71.1536C124.757 71.1536 127.62 74.0707 127.62 77.5819ZM104.068 66.2919C107.579 66.2919 110.496 69.1549 110.496 72.7202L110.496 77.636L110.496 90.9787L110.496 92.2211C110.496 95.7324 107.633 98.6494 104.068 98.6494C100.503 98.6494 97.6398 95.7864 97.6398 92.2211L97.6398 76.3935L97.6398 72.7202C97.6938 69.1549 100.557 66.2919 104.068 66.2919ZM93.3723 26.8039L93.3723 72.7202L93.3723 76.3935L93.3723 92.2211C93.3723 98.1633 98.18 102.971 104.122 102.971C107.903 102.971 111.253 100.972 113.143 98.0012C115.088 100.27 118.005 101.729 121.246 101.729C123.623 101.729 125.838 100.918 127.674 99.5678L127.674 102.701C127.674 124.795 109.686 142.783 87.5922 142.783C65.6064 142.783 47.51 124.633 46.3215 101.458L46.3215 62.3485C46.9157 62.0784 48.3743 61.7003 50.481 61.9704C52.5878 62.2405 56.5312 63.4829 59.5022 68.1826C61.5009 71.4237 60.9607 77.9061 60.5286 83.1459C60.4746 83.7401 60.4206 84.2803 60.3665 84.8205L60.3665 84.9285C60.1505 87.8456 60.0964 91.897 62.3112 93.9498C64.2559 95.6784 67.0109 96.5427 69.7119 97.353C72.1427 98.1092 74.6276 98.8655 76.3022 100.162C81.38 104.159 84.5131 112.37 85.2694 118.745C85.4314 119.933 86.5118 120.743 87.7003 120.635C88.8887 120.473 89.699 119.393 89.5909 118.204C88.7806 111.506 85.4855 101.891 79.0032 96.7588C76.6803 94.9221 73.6553 94.0038 71.0083 93.1935C68.6855 92.4912 66.4707 91.789 65.2283 90.7086C65.1742 90.6546 64.3099 89.8443 64.6881 85.2527L64.6881 85.1446C64.7421 84.6044 64.7961 84.0642 64.8501 83.47C65.3903 77.3118 65.9305 70.2893 63.1755 65.8598C61.8791 63.753 60.3665 62.1324 58.746 60.944L53.9923 41.6051C53.5601 39.9305 53.8302 38.2019 54.7485 36.7434C55.6128 35.2849 57.0173 34.2585 58.6919 33.8264C62.0951 32.9621 65.6064 35.0688 66.4167 38.526L75.762 76.5016C74.0334 76.7717 72.6289 77.1498 72.5749 77.1498C71.4405 77.4739 70.7382 78.6623 71.1164 79.7967C71.4405 80.9311 72.6289 81.6334 73.7633 81.3093C73.7633 81.3093 76.3562 80.553 78.463 80.553C80.5697 80.553 83.1626 81.2552 83.1626 81.3093C84.297 81.6334 85.4855 80.9852 85.8096 79.8507C85.8636 79.6347 85.9176 79.4726 85.9176 79.2565C85.9176 78.3382 85.3234 77.4739 84.3511 77.2038C84.243 77.2038 82.5684 76.7176 80.6237 76.4475L80.6237 26.8579C80.6237 23.3466 83.4867 20.4296 87.052 20.4296C90.6173 20.4296 93.3723 23.2926 93.3723 26.8039Z" fill="white"/>
</g>
</g>
<defs>
<filter id="filter0_d_9_83" x="0.996887" y="0.996948" width="171.006" height="169.782" filterUnits="userSpaceOnUse" color-interpolation-filters="sRGB">
<feFlood flood-opacity="0" result="BackgroundImageFix"/>
<feColorMatrix in="SourceAlpha" type="matrix" values="0 0 0 0 0 0 0 0 0 0 0 0 0 0 0 0 0 0 127 0" result="hardAlpha"/>
<feOffset dy="4"/>
<feGaussianBlur stdDeviation="2"/>
<feComposite in2="hardAlpha" operator="out"/>
<feColorMatrix type="matrix" values="0 0 0 0 0 0 0 0 0 0 0 0 0 0 0 0 0 0 0.25 0"/>
<feBlend mode="normal" in2="BackgroundImageFix" result="effect1_dropShadow_9_83"/>
<feBlend mode="normal" in="SourceGraphic" in2="effect1_dropShadow_9_83" result="shape"/>
</filter>
<filter id="filter1_d_9_83" x="38" y="16" width="97.942" height="139.051" filterUnits="userSpaceOnUse" color-interpolation-filters="sRGB">
<feFlood flood-opacity="0" result="BackgroundImageFix"/>
<feColorMatrix in="SourceAlpha" type="matrix" values="0 0 0 0 0 0 0 0 0 0 0 0 0 0 0 0 0 0 127 0" result="hardAlpha"/>
<feOffset dy="4"/>
<feGaussianBlur stdDeviation="2"/>
<feComposite in2="hardAlpha" operator="out"/>
<feColorMatrix type="matrix" values="0 0 0 0 0 0 0 0 0 0 0 0 0 0 0 0 0 0 0.25 0"/>
<feBlend mode="normal" in2="BackgroundImageFix" result="effect1_dropShadow_9_83"/>
<feBlend mode="normal" in="SourceGraphic" in2="effect1_dropShadow_9_83" result="shape"/>
</filter>
</defs>
</svg>
